# xmcd CD database file
#
# Track frame offsets:
#	182
#	15100
#	28572
#	43045
#	57130
#	72282
#	85797
#	100425
#	113690
#	127185
#	138567
#	153097
#
# Disc length: 2207 seconds
#
# Revision: 0
# Processed by: cddbd v1.5.2PL0 Copyright (c) Steve Scherf et al.
# Submitted via: CDex 1.51
#
DISCID=94089d0c
DTITLE=Django Reinhardt and Stephane Grappelli - Stardust
DYEAR=1993
DGENRE=Jazz
TTITLE0=What A Diff'erence A Day Made
TTITLE1=Avalon
TTITLE2=Blue Moon
TTITLE3=Stardust
TTITLE4=I Can't Give You Anything But Love
TTITLE5=Chasing Shadows
TTITLE6=Nocturne
TTITLE7=Djangology
TTITLE8=Don't Worry 'Bout me
TTITLE9=I've Got My Love To Keep Me Warm
TTITLE10=The Man I Love
TTITLE11=Please Be Kind
EXTD=YEAR: 1993
EXTT0=
EXTT1=
EXTT2=
EXTT3=
EXTT4=
EXTT5=
EXTT6=
EXTT7=
EXTT8=
EXTT9=
EXTT10=
EXTT11=
PLAYORDER=
